<svg width="20" height="19" viewBox="0 0 20 19" fill="none" xmlns="http://www.w3.org/2000/svg">
<path d="M4.24883 10.7187L10.3738 16.8437C10.6238 17.0937 10.7438 17.3854 10.7338 17.7188C10.7238 18.0521 10.5934 18.3437 10.3426 18.5937C10.0926 18.8229 9.80091 18.9429 9.46758 18.9537C9.13424 18.9646 8.84258 18.8446 8.59258 18.5937L0.342577 10.3437C0.217577 10.2187 0.128827 10.0833 0.0763268 9.9375C0.0238268 9.79167 -0.00158974 9.63542 7.69235e-05 9.46875C0.00174359 9.30208 0.0279933 9.14583 0.0788266 9C0.12966 8.85417 0.217994 8.71875 0.343827 8.59375L8.59383 0.34375C8.82299 0.114583 9.10966 0 9.45383 0C9.79799 0 10.0947 0.114583 10.3438 0.34375C10.5938 0.59375 10.7188 0.890833 10.7188 1.235C10.7188 1.57917 10.5938 1.87583 10.3438 2.125L4.24883 8.21875H18.2176C18.5717 8.21875 18.8688 8.33875 19.1088 8.57875C19.3488 8.81875 19.4684 9.11542 19.4676 9.46875C19.4667 9.82208 19.3467 10.1192 19.1076 10.36C18.8684 10.6008 18.5717 10.7204 18.2176 10.7187H4.24883Z" fill="black"/>
</svg>
